<svg xmlns="http://www.w3.org/2000/svg" viewBox="0 0 64 64" id="branding"><path d="M27,56H10a1,1,0,0,1-1-1V33a1,1,0,0,1,1-1H24V20H10a1,1,0,0,1-1-1V5a1,1,0,0,1,1-1H38a1,1,0,0,1,.71.29l8,8A1,1,0,0,1,47,13V39a1,1,0,0,1-1,1H28V55A1,1,0,0,1,27,56ZM11,54H26V39a1,1,0,0,1,1-1H45V13.41L37.59,6H11V18H25a1,1,0,0,1,1,1V33a1,1,0,0,1-1,1H11Z"></path><path d="M59 60H27a1 1 0 0 1-1-1V39a1 1 0 0 1 1-1H59a1 1 0 0 1 1 1V59A1 1 0 0 1 59 60zM28 58H58V40H28zM25 34H5a1 1 0 0 1-1-1V19a1 1 0 0 1 1-1H25a1 1 0 0 1 1 1V33A1 1 0 0 1 25 34zM6 32H24V20H6zM54.92 37h0a1 1 0 0 1-.79-.41l-2.92-4A1 1 0 0 1 51 32V11a2 2 0 0 1 2-2h4a2 2 0 0 1 2 2V32a1 1 0 0 1-.21.61l-3.08 4A1 1 0 0 1 54.92 37zM53 31.67l1.94 2.66L57 31.66V11H53zM58 32h0z"></path><path d="M57 11H53a1 1 0 0 1-1-1V7a3 3 0 0 1 6 0v3A1 1 0 0 1 57 11zM54 9h2V7a1 1 0 0 0-2 0zM11 28a3 3 0 1 1 3-3A3 3 0 0 1 11 28zm0-4a1 1 0 1 0 1 1A1 1 0 0 0 11 24zM21 27H17a1 1 0 0 1 0-2h4a1 1 0 0 1 0 2zM21 30H17a1 1 0 0 1 0-2h4a1 1 0 0 1 0 2zM18 16a4 4 0 1 1 4-4A4 4 0 0 1 18 16zm0-6a2 2 0 1 0 2 2A2 2 0 0 0 18 10zM34 11H25a1 1 0 0 1 0-2h9a1 1 0 0 1 0 2zM30 15H25a1 1 0 0 1 0-2h5a1 1 0 0 1 0 2zM46 14H38a1 1 0 0 1-1-1V5a1 1 0 0 1 .62-.92 1 1 0 0 1 1.09.21l8 8a1 1 0 0 1 .21 1.09A1 1 0 0 1 46 14zm-7-2h4.59L39 7.41zM43 48a1 1 0 0 1-.45-.11l-16-8a1 1 0 0 1 .9-1.78L43 45.88l15.55-7.77a1 1 0 1 1 .9 1.78l-16 8A1 1 0 0 1 43 48zM33.5 56A3.5 3.5 0 1 1 37 52.5 3.5 3.5 0 0 1 33.5 56zm0-5A1.5 1.5 0 1 0 35 52.5 1.5 1.5 0 0 0 33.5 51zM49 52H40a1 1 0 0 1 0-2h9a1 1 0 0 1 0 2zM45 56H40a1 1 0 0 1 0-2h5a1 1 0 0 1 0 2z"></path></svg>