<svg xmlns="http://www.w3.org/2000/svg" viewBox="0 0 1024 1024" id="product"><path d="M905.5 307v541.5c0 24.9-.3 49.9 0 74.8v1l50-50H104.7c-11.5 0-23-.1-34.5 0h-1.5l50 50V382.8c0-24.9.3-49.9 0-74.8v-1l-50 50H919.5c11.5 0 23 .1 34.5 0h1.5c12.8 0 26.3-5.6 35.4-14.6 8.7-8.7 15.2-22.9 14.6-35.4-.6-12.9-4.8-26.3-14.6-35.4-9.8-9-21.8-14.6-35.4-14.6H104.7c-11.5 0-23-.1-34.5 0h-1.5c-27 0-50 22.9-50 50v541.5c0 24.9-.3 49.9 0 74.8v1c0 27 22.9 50 50 50H919.5c11.5 0 23 .1 34.5 0h1.5c27 0 50-22.9 50-50V382.8c0-24.9.3-49.9 0-74.8v-1c0-12.8-5.6-26.3-14.6-35.4-8.7-8.7-22.9-15.2-35.4-14.6-12.9.6-26.3 4.8-35.4 14.6-8.9 9.9-14.6 21.9-14.6 35.4z"></path><path d="M955.5 257.1H104.7c-11.5 0-23-.1-34.5 0h-1.5c11.8 28.5 23.6 56.9 35.4 85.4l66-70.2c35.1-37.3 70.2-74.5 105.2-111.8 8-8.5 16.1-17.1 24.1-25.6-11.8 4.9-23.6 9.8-35.4 14.6h435.4c20 0 40 .3 60 0h.9c-11.8-4.9-23.6-9.8-35.4-14.6l66 70.2c35.1 37.3 70.2 74.5 105.2 111.8 8 8.5 16.1 17.1 24.1 25.6 8.6 9.2 22.9 14.6 35.4 14.6 12.3 0 26.9-5.4 35.4-14.6 8.7-9.5 15.2-22 14.6-35.4-.6-13.5-5.3-25.4-14.6-35.4-19.9-21.1-39.7-42.2-59.6-63.3-33.9-36-67.7-72-101.6-107.9-10.1-10.8-20.3-21.5-30.4-32.3-10.3-11-23.1-18.4-39.2-18.7h-481c-9 0-19.9-1-28.5 1.8-17.2 5.6-26.7 17.8-38.4 30.2-31.5 33.4-62.9 66.8-94.4 100.3-26.8 28.5-53.6 56.9-80.4 85.4-1.4 1.5-2.9 3.1-4.3 4.6-13.9 14.8-18.3 35.8-10.3 54.6 7.7 18.1 25.6 30.7 45.7 30.7H919.4c11.5 0 23 .1 34.5 0h1.5c12.8 0 26.3-5.6 35.4-14.6 8.7-8.7 15.2-22.9 14.6-35.4-.6-12.9-4.8-26.3-14.6-35.4-9.7-8.9-21.7-14.6-35.3-14.6z"></path><path d="M572.4 307v274.2c25.1-14.4 50.2-28.8 75.2-43.2-33-17.3-66-34.6-99.1-51.9-4.2-2.2-8.4-4.5-12.7-6.7-7.8-3.9-16.3-7.3-25.3-6.9-9.2.4-17 2.6-25.3 6.8-.4.2-.8.4-1.2.7-2.2 1.2-4.5 2.3-6.7 3.5-19.2 10.1-38.4 20.1-57.6 30.2-15.4 8.1-30.8 16.2-46.3 24.2 25.1 14.4 50.2 28.8 75.2 43.2V306.9l-50 50H622.3c12.8 0 26.3-5.6 35.4-14.6 8.7-8.7 15.2-22.9 14.6-35.4-.6-12.9-4.8-26.3-14.6-35.4-9.8-9-21.8-14.6-35.4-14.6H398.6c-27 0-50 22.9-50 50v274.2c0 17.6 9.6 34.3 24.8 43.2 16 9.4 34.4 8.4 50.5 0 32.6-17.1 65.3-34.2 97.9-51.3 4.7-2.4 9.3-4.9 14-7.3h-50.5c32.6 17.1 65.3 34.2 97.9 51.3 4.7 2.4 9.3 4.9 14 7.3 16 8.4 34.5 9.4 50.5 0 15.2-8.9 24.8-25.5 24.8-43.2V306.9c0-12.8-5.6-26.3-14.6-35.4-8.7-8.7-22.9-15.2-35.4-14.6-12.9.6-26.3 4.8-35.4 14.6-9 10-14.7 22-14.7 35.5z"></path></svg>